<?xml version="1.0" encoding="UTF-8"?><svg id="Calque_2" xmlns="http://www.w3.org/2000/svg" viewBox="0 0 294.76 341.08"><defs><style>.cls-1{fill:#ff1c00;}.cls-2{letter-spacing:0em;}.cls-3{letter-spacing:0em;}.cls-4{letter-spacing:0em;}.cls-5{font-family:MinionVariableConcept-Roman, 'Minion Variable Concept';font-size:12px;font-variation-settings:'wght' 400, 'opsz' 11;}.cls-6{letter-spacing:.02em;}.cls-7{letter-spacing:-.02em;}.cls-8{letter-spacing:0em;}.cls-9{letter-spacing:.01em;}.cls-10{letter-spacing:0em;}.cls-11{font-family:BernardMT-Condensed, 'Bernard MT Condensed';font-size:67.02px;}.cls-12{letter-spacing:0em;}.cls-13{fill:#231f20;}.cls-14{letter-spacing:0em;}</style></defs><g id="Calque_2-2"><rect class="cls-1" x="-30.73" y="131" width="326.6" height="35.57" rx="17.78" ry="17.78" transform="translate(119.43 -50.06) rotate(37.92)"/><rect class="cls-1" x="-7.84" y="128.05" width="337.4" height="35.57" rx="17.78" ry="17.78" transform="translate(-56.06 136.38) rotate(-39.7)"/><g id="g4509"><g id="g4511"><path id="path4513" class="cls-13" d="M79.67,65.56h0c-1.38-.59-2.73-1.3-4.04-2.11-1.05-.86-1.94-2.02-2.61-3.39-.2-.3-.39-.61-.57-.93-.44-.5-.98-.8-1.56-.85-.97-.08-1.92-.28-2.86-.59-1.5-.68-2.79-2.01-3.65-3.78-.15-.26-.39-.41-.63-.41-2.41,.33-4.82-.76-6.58-2.98l-.37-.42c-.15-.07-.31-.04-.44,.08-1.65,1.55-3.89,1.42-5.42-.34-.63-.61-1.18-1.34-1.65-2.17-.19-.28-.44-.46-.72-.51-1.65-.19-3.17-1.28-4.19-3.03-.55-.8-1.07-1.64-1.54-2.52-.12-.2-.27-.36-.44-.47l-.26-.13c-.12-.08-.25-.17-.36-.26-.13-.1-.25-.22-.36-.34-2.21-1.79-3.83-4.64-4.52-7.97-.35-.99-.55-2.08-.57-3.17,0-.53,0-1.06-.03-1.59,.04-.59-.19-1.15-.59-1.41-.88-.8-1.62-1.83-2.18-3.03-.4-1.21-.66-2.49-.77-3.8,.01-1.42,0-2.83,0-4.25,.38-2.14,.92-4.23,1.61-6.23,.88-2.02,2-3.84,3.31-5.39,1.16-1.13,2.44-2.01,3.8-2.59,1.28-.82,2.7-1.14,4.11-.91,.24,.09,.37,.42,.31,.73-.72,4.71,.07,9.6,2.17,13.5,.69,1.21,1.36,2.45,2,3.71,1.37,1.49,2.77,2.91,4.21,4.28,1,.75,2.03,1.42,3.09,2.01,.57,.53,1.22,.87,1.91,1,.29,.12,.56,.32,.8,.57,.09,.08,.19,.12,.3,.14,.36,.15,.72,.36,1.05,.62l.46,.27h.24c1.05,0,2.09,.21,3.09,.64,1.74,.24,3.48,.46,5.23,.66,1.99-.05,3.97-.23,5.95-.52,3.15-.45,6.33-.6,9.5-.44,1.23,.37,2.48,.6,3.74,.7,.23,0,.45-.13,.6-.37,1.1-1.45,2.36-2.69,3.73-3.66,2.03-1.79,4.31-3.03,6.7-3.65,.61-.27,1.07-.95,1.22-1.78,.34-1.12,.89-2.11,1.6-2.86,1.05-1.57,2.25-2.95,3.58-4.09,1.54-1.45,3.22-2.6,4.99-3.43,1.7-.57,3.47-.75,5.21-.52,1.2,.05,2.4,.26,3.57,.65,.25,.03,.5-.04,.72-.21,1.87-1.31,3.77-2.53,5.7-3.67,1.41-.58,2.84-1.09,4.28-1.52,1.49-.31,3.01-.34,4.51-.08,.24,.08,.48,.16,.71,.24,.5,.21,.79,.89,.68,1.57-.31,2.16,.16,4.39,1.27,6.01,.84,1.03,1.79,1.87,2.82,2.5,.19,.15,.33,.39,.39,.68,.06,1.69,.06,3.38,0,5.07,.03,.42,.12,.84,.26,1.22,.08,.2,.11,.43,.1,.66-.02,.15-.1,.28-.21,.33-.34,.08-.7,.04-1.02-.12-.62-.17-1.19-.57-1.64-1.15-.91-.8-1.72-1.8-2.38-2.96-.41-.47-.7-1.09-.84-1.79-.32-1.79-.94-3.47-1.82-4.9-.9-.81-1.99-1.14-3.06-.94-1.75,.39-3.44,1.16-4.99,2.29-1.36,1.09-2.62,2.42-3.72,3.94-.1,.14-.24,.2-.38,.18-.87-.2-1.72-.5-2.54-.91-2.15-.6-4.37-.36-6.42,.68-1.7,.18-3.29,1.16-4.5,2.77-1.57,1.63-2.79,3.78-3.54,6.23-.07,.21-.21,.37-.37,.44-1.35,.52-2.67,1.17-3.94,1.94-2.08,1.25-4.06,2.78-5.92,4.57-1.59,1.45-3.06,3.12-4.39,4.96-1.92,2.44-3.41,5.41-4.39,8.7-.03,.1-.1,.17-.18,.19-.08,.02-.16,0-.22-.09-.08-.09-.14-.2-.17-.33-.36-2.06-.32-4.22,.12-6.25,.37-1.94,.88-3.82,1.52-5.63,.04-.15,.04-.31,0-.45s-.15-.24-.26-.28c-.86-.08-1.72,.15-2.49,.67-2.27,.95-4.31,2.7-5.89,5.06-.48,.73-.87,1.57-1.14,2.47-.08,.2-.19,.38-.33,.51-.09,.08-.21,.1-.31,.04-.1-.06-.17-.19-.19-.33-.04-.49,0-.98,.15-1.44,.22-1.15,.62-2.24,1.16-3.17,.11-.51,.22-1.02,.31-1.54,.05-.22,.1-.45,.13-.68,0-.11,0-.22-.07-.3-.05-.08-.13-.13-.22-.13-.17,0-.34,.04-.5,.12-1.13,.47-2.17,1.24-3.06,2.26-.8,.7-1.52,1.55-2.14,2.52-1.03,1.76-1.81,3.76-2.3,5.89-.03,.12-.08,.22-.15,.3-.05,.06-.13,.06-.18,.02-.08-.08-.15-.19-.19-.31-.46-2.3-.29-4.74,.47-6.88,.33-.79,.61-1.62,.83-2.47,.05-.19,.07-.39,.07-.59-.03-.22-.18-.37-.35-.34-.2,.04-.4,.11-.59,.21-1.39,.5-2.66,1.49-3.66,2.88-.8,.8-1.44,1.85-1.86,3.06-.06,.15-.17,.26-.29,.31-.07,.02-.14,0-.18-.08-.05-.09-.08-.2-.09-.31-.05-1.95,.33-3.87,1.1-5.53,.13-.4,.28-.78,.44-1.16,.05-.11,.07-.23,.08-.36,0-.04,0-.07-.02-.11s-.04-.08-.06-.11c-.2-.21-.45-.28-.7-.21-2.57,.51-4.9,2.35-6.46,5.12-.1,.24-.21,.48-.33,.7-.07,.13-.2,.19-.32,.13-.12-.06-.19-.21-.18-.38,0-.27,.03-.53,.07-.79,.32-2.17,.99-4.21,1.97-5.99,.23-.44,.48-.85,.74-1.25,.08-.12,.11-.27,.09-.42-.02-.15-.09-.28-.19-.35-.19-.11-.39-.15-.6-.13-2.48-.13-4.85,1.34-6.38,3.95-.09,.16-.22,.27-.37,.32-.12,.02-.23-.08-.27-.23-.03-.13-.04-.26-.02-.39,.31-1.58,.88-3.04,1.66-4.29,.06-.11,.1-.25,.11-.39,0-.23-.15-.42-.33-.42-1.29,.17-2.56,.43-3.82,.79l-.28,.06s-.09-.04-.12-.09c-.03-.05-.04-.12-.03-.18,.02-.12,.05-.22,.11-.31,.41-.75,.92-1.4,1.51-1.91,.08-.08,.15-.19,.19-.31,.03-.1,.03-.21,0-.31-.08-.19-.2-.34-.35-.44-.89-.38-1.83-.53-2.77-.42-.51,0-1.01-.02-1.52-.06-.08-.01-.16-.06-.23-.13-.06-.06-.08-.15-.07-.25,.02-.12,.06-.23,.12-.31,.42-.5,.78-1.07,1.09-1.69,.11-.23,.22-.47,.31-.71,.08-.24,.03-.53-.11-.7-1.21-1.17-2.24-2.64-3.04-4.33-.85-1.44-1.52-3.04-1.98-4.77-.3-1.86-.51-3.74-.63-5.64-.01-.14-.06-.26-.12-.37-.06-.08-.15-.12-.23-.1-.18,.03-.36,.11-.52,.24-1.31,.95-2.43,2.31-3.24,3.98-1.81,2.79-2.57,6.52-2.08,10.15,.09,.9,.24,1.78,.47,2.64l.1,.28c.05,.06,.11,.09,.17,.09,.21-.06,.37-.29,.4-.57,.2-2.41,.77-4.74,1.67-6.85,.5-.66,1.03-1.28,1.58-1.87,.15-.13,.34-.12,.48,.03,1.52,1.84,2.72,4.1,3.53,6.61,.04,.17,0,.36-.11,.48-.18,.21-.37,.41-.58,.58-1.52,1.99-2.43,4.66-2.56,7.49-.09,1.57,.11,3.14,.58,4.58,.05,.11,.12,.2,.21,.26,.06,.05,.14,.04,.2-.02,.06-.07,.11-.16,.14-.27,.41-1.67,1.07-3.21,1.94-4.53,.68-.69,1.4-1.31,2.16-1.85,.44-.13,.9-.13,1.34,0,.12,.04,.22,.14,.28,.28,.06,.14,.07,.31,.03,.47-.15,.47-.33,.93-.53,1.37-.53,2.52-.59,5.18-.16,7.73,.03,.17,.14,.29,.27,.31s.25-.08,.31-.24c.23-.69,.44-1.39,.64-2.1,.39-.88,.92-1.65,1.54-2.25,.09-.08,.19-.12,.29-.12,.08,0,.16,.06,.22,.15,.05,.09,.08,.2,.07,.31-.02,.14-.05,.28-.1,.4-.85,2.11-1.15,4.53-.87,6.89,.29,1.79,.89,3.47,1.74,4.91,.09,.14,.23,.23,.37,.24,.12,0,.22-.12,.25-.27,.03-.26,.04-.52,0-.78,0-2.39,.59-4.72,1.67-6.62,.52-.98,1.2-1.78,1.98-2.37,.08-.04,.16-.06,.25-.05,.09,.03,.16,.1,.21,.2,.05,.1,.06,.22,.04,.34-.33,1.86-.35,3.79-.06,5.66,.22,.61,.47,1.2,.74,1.76,.06,.11,.14,.19,.23,.25,.06,.04,.14,.03,.2-.02,.06-.07,.11-.16,.14-.27,.53-1.44,1.13-2.84,1.79-4.17,.41-.55,.85-1.04,1.33-1.47,.38-.18,.78-.24,1.17-.2,.12,0,.24,0,.36,.04,.17,.05,.29,.25,.28,.49-.05,.6-.17,1.17-.36,1.72-.61,2.23-.35,4.73,.72,6.64,.15,.29,.34,.55,.55,.76,.04,.03,.08,.05,.13,.05,.04,0,.08-.02,.12-.05,.08-.06,.13-.16,.16-.28,.05-.26,.1-.53,.12-.8,.15-1.05,.51-2.03,1.05-2.83,.51-1.25,1.25-2.3,2.15-3.08,.11-.09,.25-.05,.32,.09,.09,.16,.12,.36,.09,.55-.35,2.62-.21,5.31,.41,7.83,.57,1.4,1.42,2.56,2.46,3.34,.1,.05,.22,.03,.31-.05,.09-.08,.15-.22,.15-.37,.02-.25,0-.49-.02-.74,0-1.87,.36-3.71,1.01-5.36,.37-1.43,1.17-2.59,2.2-3.2,.08-.03,.16-.03,.24,0,.06,.04,.1,.13,.1,.23-.03,.48-.13,.95-.31,1.37-1.1,4.55-.12,9.53,2.53,12.76,.32,.35,.7,.62,1.1,.77,.14,.06,.3,.02,.42-.09,.12-.12,.2-.3,.21-.5,.14-2.26,.53-4.49,1.17-6.6,.49-1.34,1.18-2.52,2.05-3.47,.17-.22,.37-.39,.59-.5,.03,0,.06,0,.09,0,.03,0,.05,.04,.06,.07,.07,.25,.07,.51,0,.76-.52,1.81-.74,3.75-.66,5.68,.07,2.52,.49,5,1.25,7.31,.36,1.06,.74,2.12,1.13,3.16,1.28,2.59,2.13,5.51,2.49,8.57,.06,.84,.02,1.69-.11,2.51-.06,.3-.22,.55-.42,.7-.09,.05-.2,.02-.26-.08-.24-.46-.4-.99-.45-1.55-.67-3.04-2.27-5.56-4.4-6.95-.39-.21-.79-.38-1.19-.52"/><path id="path4515" class="cls-13" d="M201.16,65.43h0c.81-1.7,1.48-3.51,1.99-5.41,.71-2.63,.95-5.45,.69-8.24,.08-1.06-.07-2.14-.44-3.09-.04-.11-.06-.23-.05-.35,.01-.08,.06-.15,.12-.16h.11c.19,.03,.35,.15,.48,.33,2.14,2.64,3.35,6.35,3.35,10.24,.02,.22,.09,.42,.18,.6,.08,.11,.2,.15,.31,.09,.47-.27,.9-.67,1.26-1.16,1.37-1.49,2.3-3.58,2.62-5.89,.58-2.27,.48-4.76-.27-6.95-.05-.25-.08-.51-.08-.77,0-.1,.02-.2,.06-.28l.08-.07c.1,0,.19,0,.28,.06,1.08,.88,1.87,2.27,2.22,3.9,.67,1.62,.93,3.47,.76,5.3,0,.31,.16,.59,.39,.65,.1,0,.19-.05,.27-.13,1.25-1.18,2.16-2.9,2.56-4.88,.43-1.95,.47-4.02,.11-6-.04-.22-.02-.45,.06-.65,.04-.1,.11-.17,.19-.2,.08-.03,.17,0,.24,.05,.9,.9,1.64,2.04,2.17,3.35,.54,1.07,.89,2.3,1.02,3.57,0,.15,.07,.27,.16,.35,.16,.07,.35,0,.47-.15,.26-.39,.5-.81,.71-1.25,.57-1.24,.84-2.69,.77-4.15-.03-1.14-.23-2.26-.61-3.29-.06-.18-.03-.39,.08-.53,.27-.27,.62-.37,.95-.24,.43-.02,.85,.2,1.16,.59,1.11,1.08,1.91,2.63,2.25,4.41,.13,.38,.26,.75,.4,1.12,.07,.15,.18,.25,.31,.28,.02,0,.05,0,.07-.02,.03-.02,.06-.04,.09-.07,.06-.06,.11-.15,.14-.24,.35-.76,.69-1.53,1.02-2.31l.18-.66-.02-.31c.15-1.27,.02-2.58-.38-3.75-.06-.21-.08-.44-.05-.66,0-.09,.05-.17,.1-.23,.06-.05,.13-.08,.19-.06,.17,.07,.32,.19,.46,.34,.78,.5,1.38,1.39,1.68,2.47,.43,.74,.75,1.58,.94,2.48,.06,.23,.17,.43,.3,.59l.1,.14c.05,.11,.09,.23,.11,.36,.17,1.16,.21,2.35,.11,3.53,0,.1,0,.2,.05,.29,.03,.07,.09,.11,.16,.11,.08,0,.16-.06,.23-.14,.32-.52,.61-1.07,.86-1.65,1.18-2.69,1.44-5.93,.69-8.88-.03-.52-.13-1.02-.27-1.51-.03-.13-.05-.27-.04-.4,0-.15,.08-.28,.19-.3,.15,0,.3,.09,.41,.23,1.02,1.04,1.78,2.48,2.15,4.12,.04,.14,.09,.27,.17,.37,.05,.07,.12,.11,.19,.1,.07,0,.14-.06,.18-.14,.08-.19,.13-.4,.13-.62,.21-1.45,.29-2.92,.25-4.39-.19-1.48-.49-2.94-.87-4.36-.02-.12-.02-.24,0-.36,.03-.09,.08-.15,.15-.18,.16-.06,.32-.08,.49-.06,.78-.15,1.57,.21,2.13,.95,1.36,1.26,2.33,3.12,2.74,5.26,.07,.2,.14,.4,.22,.59,.02,.05,.06,.08,.1,.09,.04,0,.08,0,.12-.04,.27-.32,.44-.78,.45-1.27,.08-.66,.24-1.29,.46-1.89,.16-1.18,.05-2.39-.3-3.49-.17-2.44-1.09-4.66-2.56-6.13-.18-.21-.28-.52-.25-.84,.2-1.08,.61-2.06,1.18-2.85,.73-1.19,1.48-2.35,2.26-3.48,.09-.1,.19-.19,.31-.24,.08-.03,.17-.01,.24,.06,1.25,1.15,2.08,2.93,2.31,4.94,.35,1.32,.67,2.66,.96,4,.02,.12,.06,.22,.13,.31,.05,.06,.12,.07,.17,.02,.07-.09,.13-.2,.16-.32,1.4-4.63,.65-9.92-1.9-13.56-.68-1.4-1.61-2.54-2.71-3.33-.13-.08-.29-.08-.42,.01-.13,.13-.21,.32-.22,.54-.18,4.35-1.51,8.48-3.74,11.66-.56,1.04-1.24,1.95-2.01,2.71-.23,.23-.28,.67-.11,.98,.41,.74,.8,1.49,1.19,2.25,.05,.12,.08,.25,.09,.39,0,.1-.04,.18-.1,.23-.08,.05-.18,.06-.27,.05-1.31-.02-2.63,.02-3.94,.15-.18,.05-.36,.13-.52,.25-.11,.09-.18,.23-.19,.4-.02,.16,.02,.33,.11,.45,.16,.2,.35,.38,.54,.52,.27,.34,.52,.71,.75,1.1,.12,.16,.22,.33,.33,.5,.07,.1,.11,.22,.12,.36,0,.1-.04,.19-.1,.24-.08,.05-.16,.06-.25,.04-.2-.06-.4-.16-.59-.29-1.12-.5-2.3-.77-3.48-.78-.12,0-.23,.08-.29,.22-.05,.17-.04,.36,.02,.53,.51,1.11,1.01,2.24,1.5,3.37,.14,.4,.25,.83,.32,1.26l.02,.17c0,.15-.11,.27-.22,.26-.15,0-.3-.1-.4-.25-.91-1.67-2.18-2.94-3.64-3.64-1.09-.53-2.25-.74-3.41-.62-.12,.04-.22,.16-.26,.32s0,.34,.08,.46c.35,.42,.64,.91,.88,1.45,.88,1.83,1.5,3.85,1.83,5.97,.03,.22,.04,.45,.04,.67,0,.16-.09,.3-.2,.35-.12,.05-.24,0-.32-.13-.07-.08-.13-.19-.16-.31-.41-1.14-1.03-2.11-1.82-2.82-1.46-1.44-3.15-2.43-4.94-2.9-.16-.03-.31-.02-.47,.03-.09,.04-.16,.12-.2,.24-.04,.11-.04,.24,0,.35,.15,.49,.34,.95,.58,1.37,.64,1.77,1.01,3.69,1.07,5.65,0,.13-.04,.25-.1,.35-.07,.11-.2,.14-.3,.06l-.09-.11c-.07-.08-.13-.19-.16-.31-.42-1.24-1.05-2.35-1.82-3.24-1.1-1.46-2.46-2.52-3.95-3.1-.09-.02-.17-.02-.26,0-.1,.04-.18,.15-.2,.3-.08,.47,0,.97,.19,1.37,.96,2.42,1.31,5.19,1.01,7.9-.01,.17-.03,.35-.06,.52-.03,.18-.12,.33-.24,.41-.08,.03-.17,.02-.23-.04-.15-.16-.25-.38-.28-.63-.48-3.03-1.73-5.74-3.55-7.66-1.08-1.33-2.36-2.33-3.75-2.96-.09-.03-.19-.03-.28,.02-.06,.06-.11,.15-.12,.25-.02,.13-.01,.26,.01,.39,.52,1.83,.96,3.7,1.3,5.6,.08,.31,.11,.64,.07,.97l-.03,.16c-.03,.07-.07,.12-.13,.13-.06,.02-.11,0-.16-.05-.09-.09-.16-.21-.22-.34-.7-1.97-1.77-3.66-3.11-4.92-1.7-1.72-3.64-2.98-5.7-3.72-.29-.04-.58-.02-.86,.05-.12,.03-.22,.16-.23,.33,.02,.5,.14,.99,.34,1.41,1.05,3.17,1.47,6.65,1.21,10.11-.04,.27-.1,.54-.17,.8-.03,.11-.08,.2-.16,.26-.06,.04-.14,.04-.19,0-.06-.06-.11-.15-.14-.25-1.32-4.24-3.36-8.01-5.96-11.01-2.99-3.52-6.35-6.42-9.97-8.61-.84-.19-1.64-.61-2.35-1.23-.14-.15-.25-.35-.32-.56l-.09-.32c-.33-.7-.64-1.43-.91-2.18l-.15-.5-.13-.17c-1.37-2.28-3.11-4.11-5.09-5.35-1.5-.52-3-1.03-4.5-1.52-1.85-.33-3.72-.03-5.46,.87-.3,.13-.63,.06-.89-.19-2.3-3.32-5.32-5.6-8.63-6.53-1.72-.51-3.47,.71-4.14,2.89-.41,2.17-1.25,4.16-2.42,5.75-1.01,1.68-2.5,2.72-4.11,2.87-.12,0-.24-.04-.35-.1-.13-.09-.2-.27-.19-.46,.08-.46,.15-.92,.21-1.39,0-1.7,.05-3.39,.18-5.07,.04-.48,.28-.89,.62-1.07,2.4-.8,4.13-3.58,4.28-6.87-.09-.63-.12-1.27-.08-1.9,.07-.52,.38-.94,.77-1.02,1.98-.47,4.01-.34,5.95,.37,3.12,.98,6.09,2.69,8.78,5.03,.16,.09,.32,.19,.48,.28,.11,.06,.22,.1,.33,.12,.13,.02,.25,.01,.38-.02,2.04-.47,4.11-.61,6.17-.42,2.89,.68,5.6,2.34,7.86,4.83,1.7,1.66,3.17,3.72,4.34,6.06,.11,.31,.22,.62,.33,.94,.68,1.06,1.63,1.76,2.67,1.95,2.91,1.45,5.61,3.58,7.96,6.3,.54,.89,1.42,1.29,2.26,1.04,3.47-.66,6.99-.65,10.46,.03,2.05,.48,4.11,.85,6.17,1.11,1.91,.12,3.82-.04,5.7-.47,1.85-.25,3.67-.71,5.46-1.38,1.58-.45,3.1-1.2,4.52-2.24,3.09-1.7,5.79-4.47,7.81-8.03,2.12-3.33,3.26-7.57,3.23-11.94-.13-.91-.2-1.83-.19-2.76,.02-.19,.1-.35,.23-.42,.19-.07,.38-.1,.57-.09,1.8,.13,3.56,.75,5.17,1.81,.8,.95,1.64,1.84,2.51,2.67,1.63,2.01,2.85,4.55,3.52,7.37,1.16,3.39,1.3,7.25,.39,10.78-.37,1.29-1.02,2.41-1.87,3.2-.38,.54-.82,1.01-1.31,1.37-.14,.13-.23,.34-.25,.57,.02,1.37-.11,2.74-.4,4.06-.73,2.53-1.77,4.89-3.07,6.96-.81,1.07-1.76,1.92-2.81,2.51-.15,.08-.28,.22-.38,.38l-.16,.32c-.98,1.86-2.27,3.39-3.77,4.47-.8,.32-1.62,.55-2.45,.67-.08,.02-.15,.08-.19,.17-.09,.21-.19,.42-.29,.62-1.26,2.2-3.32,3.3-5.37,2.87-.49-.27-.96-.58-1.42-.95-.11-.07-.23-.12-.35-.14-.1,0-.2,.03-.29,.11-1.4,1.74-3.18,2.85-5.08,3.14-.62,.03-1.23-.04-1.83-.23-.17-.02-.33,.05-.46,.2-.78,1.3-1.7,2.44-2.73,3.4-1.34,.77-2.78,1.18-4.24,1.2-.9,.06-1.7,.77-2.08,1.85-.74,1.44-1.75,2.59-2.93,3.34-1.53,.84-3.12,1.51-4.74,1.99-.79,.56-1.57,1.16-2.33,1.78-1.15,1.93-2.06,4.1-2.69,6.43-.05,.12-.12,.22-.21,.28-.06,.04-.14,.03-.2-.02-.12-.12-.21-.3-.26-.49-.39-1.92-.18-3.97,.58-5.68,.46-1.74,1-3.43,1.63-5.06"/><path id="path4517" class="cls-13" d="M91.32,68.07h0c1.56-.52,3.19-.51,4.74,.02,1.19,.22,2.33,.8,3.32,1.72,.21,.13,.4,.3,.58,.5,.1,.13,.13,.32,.09,.5-.04,.09-.11,.16-.19,.17-.17,0-.34-.04-.49-.14-1.95-.73-4.03-.59-5.93,.38-.77,.46-1.49,1.07-2.12,1.83-.18,.27-.32,.59-.42,.93-.44,.82-.58,1.85-.39,2.83,.04,.15,.05,.31,.04,.47,0,.15-.09,.27-.2,.29-.22,.07-.44-.04-.58-.28-1.43-2.12-1.74-5.2-.77-7.75,.65-.8,1.46-1.32,2.34-1.47"/><path id="path4519" class="cls-13" d="M189.2,72.07h0c-1.17-.23-2.37-.09-3.49,.41-.09,.04-.18,.05-.27,.02-.06-.02-.1-.07-.12-.15v-.13c0-.1,.03-.21,.08-.29,.26-.39,.58-.68,.95-.85,1.3-1.02,2.77-1.56,4.28-1.57,1.81-.38,3.66,.11,5.22,1.38,1.21,1.4,1.55,3.73,.82,5.64-.28,.96-.67,1.86-1.17,2.66-.09,.16-.24,.25-.39,.22s-.28-.16-.33-.36c-.02-.13-.02-.27,0-.4,.28-1.98-.44-3.96-1.78-4.89-.79-.7-1.68-1.2-2.61-1.47-.4-.1-.79-.17-1.19-.23"/><path id="path4521" class="cls-13" d="M135.27,79.07h0c-.43-2.4-.71-4.84-.82-7.3-.3-4.22,.05-8.47,1.03-12.5,.08-.28,.27-.48,.49-.51h.11c.07,.05,.13,.12,.16,.22,.04,.15,.05,.31,.04,.47-.1,4.1,.43,8.19,1.58,12.01,.88,2.89,2.26,5.47,4.02,7.52,.14,.23,.19,.53,.14,.82-.16,1.73-.19,3.48-.07,5.22,0,.31-.16,.57-.39,.62-.09,0-.19-.05-.26-.13-.48-.61-.99-1.17-1.53-1.67-.87-.6-1.85-.81-2.82-.6-.17,.04-.35,0-.5-.1-.16-.16-.28-.37-.35-.62-.38-1.1-.66-2.26-.83-3.44"/><path id="path4523" class="cls-13" d="M145.82,75.63h0c1.09-1.9,1.89-4.08,2.35-6.39,.84-3.2,1.26-6.56,1.25-9.95,0-.09,.03-.18,.07-.25,.02-.02,.04-.03,.06-.04h.11c.22,.03,.41,.22,.5,.49,1.1,5.68,1.2,11.63,.31,17.37-.27,2.16-.75,4.26-1.44,6.24-.08,.28-.28,.47-.51,.45-.53-.11-1.07-.16-1.61-.14-1.11,.07-2.15,.77-2.85,1.92-.14,.18-.31,.31-.49,.36-.13,0-.26-.07-.36-.2-.09-.13-.15-.3-.14-.48,0-1.95,0-3.91,.03-5.86,0-.27,.12-.51,.31-.63,.94-.76,1.76-1.74,2.43-2.9"/><path id="path4525" class="cls-13" d="M84.39,97.2h0c-.02-.22-.03-.44,0-.65,.04-.26,.22-.44,.42-.42,.82,.16,1.66,.11,2.46-.14,.86-.39,1.66-.96,2.38-1.69,.27-.38,.51-.8,.7-1.26,.19-.49,.09-1.09-.25-1.41-.6-.37-1.15-.85-1.64-1.44-.9-1.43-1.07-3.44-.45-5.11,.27-.74,.54-1.47,.82-2.21,.1-.21,.24-.39,.39-.53,1.48-1.8,3.14-3.31,4.94-4.47,.94-.78,1.99-1.31,3.08-1.56,1.5-.77,3.09-1.19,4.7-1.23l.25,.04s.07,.09,.07,.16c0,.04,0,.07-.03,.11s-.04,.08-.06,.11c-.13,.13-.27,.23-.42,.29-1.81,.88-3.63,1.7-5.47,2.46-1.38,1.06-2.47,2.68-3.11,4.62-.16,.71-.23,1.45-.22,2.18,.03,.32,.17,.6,.37,.78,.12,.09,.27,.05,.36-.1,.12-.21,.23-.43,.34-.65,1.27-2.34,3.07-4.08,5.13-4.98,1.35-.15,2.69-.17,4.04-.08,.42,.14,.83,.37,1.2,.68,.78,.76,1.67,1.27,2.61,1.52,1.65,.33,3.32,.41,4.98,.24,1.95-.12,3.87,.62,5.47,2.11,1.11,.67,2.07,1.73,2.77,3.07,.07,.12,.09,.28,.04,.42s-.14,.24-.26,.29c-.11,.05-.23,.03-.33-.05-1.7-1.22-3.63-1.74-5.56-1.48-1.98,.22-3.97,.23-5.95,0-1.31-.5-2.58-1.16-3.8-1.98-1.91-.98-4.04-.93-5.93,.14-.27,.2-.51,.47-.7,.78-1.05,.99-1.91,2.28-2.54,3.77-.47,1.9-1.12,3.71-1.93,5.39-1.15,2.64-3.24,4.29-5.53,4.35l-.48,.09c-.28,.15-.44,.55-.37,.94,.2,2.19,.9,4.25,2,5.89,.08,.12,.14,.26,.17,.42v.17c0,.09-.03,.18-.09,.24-.05,.06-.12,.09-.19,.09-.73-.19-1.35-.82-1.68-1.71-1.57-2.26-2.52-5.16-2.72-8.23"/><path id="path4527" class="cls-13" d="M195.61,100.92h0c-1.88-.61-3.44-2.36-4.21-4.73-.77-2.15-1.59-4.26-2.47-6.34-.64-1.26-1.43-2.36-2.36-3.25-2.08-1.49-4.59-1.47-6.66,.05-1.96,1.4-4.21,1.89-6.4,1.41-2.05-.35-4.13-.32-6.17,.07-.71,.34-1.41,.69-2.12,1.05-.13,.04-.26,0-.36-.11s-.16-.27-.17-.44c0-.09,.03-.17,.07-.23,.14-.17,.29-.34,.44-.5,1.43-1.91,3.24-3.24,5.21-3.83,1.88-.48,3.81-.53,5.71-.16,1.75-.16,3.45-.82,4.99-1.93,1.24-.46,2.54-.58,3.81-.35,1.93,.25,3.71,1.5,4.95,3.5,.57,.81,1.13,1.63,1.68,2.45,.09,.12,.22,.14,.33,.07,.11-.1,.17-.26,.19-.43,.28-1.99-.29-4.02-1.47-5.29-1-1.51-2.34-2.54-3.81-2.94-1.12-.75-2.29-1.36-3.5-1.82-.1-.05-.18-.14-.23-.26-.04-.08-.03-.18,.02-.24l.09-.07c.19-.05,.38-.06,.57-.03,1.85,.44,3.67,1.05,5.45,1.84,.58,.28,1.15,.65,1.67,1.1,1.03,.63,1.98,1.43,2.85,2.4,1.49,1.17,2.65,2.95,3.31,5.08,.55,1.68,.37,3.63-.48,5.07-.47,.6-1.03,1.06-1.65,1.34-.2,.14-.35,.38-.42,.67-.06,.29-.04,.6,.07,.86,.46,1.36,1.39,2.34,2.49,2.63,.94,.58,2,.76,3.02,.5,.14-.02,.28,.06,.38,.21l.05,.16c.07,.32,.06,.65-.01,.96-.24,2.16-.83,4.22-1.74,6.03-.53,1.12-1.15,2.15-1.87,3.06l-.31,.31c-.19,.09-.38,.16-.58,.22-.14,0-.27-.1-.33-.27s-.04-.37,.05-.52c.12-.23,.26-.43,.42-.62,.67-1,1.17-2.19,1.44-3.49,.3-.74,.4-1.6,.29-2.43-.03-.16-.13-.28-.24-.33-.12-.05-.26-.08-.39-.07-.54-.08-1.08-.2-1.61-.38"/><path id="path4529" class="cls-13" d="M126.24,134.49h0c1.61,.25,3.16,1,4.52,2.18,1.47,1.02,2.98,1.94,4.51,2.77,1.31,.48,2.68,.63,4.04,.45,.07,0,.14,.04,.19,.12,.02,.06,.03,.14,0,.21s-.05,.12-.1,.16l-.12,.06c-.94,.13-1.89,.1-2.83-.09-2.06-.4-4.13-.71-6.2-.93-.48,.04-.95,.14-1.41,.31-.17,.09-.31,.23-.44,.4-.2,.24-.39,.48-.59,.72-.28,.44-.74,.56-1.12,.29-1.52-.8-2.66-2.51-3.07-4.61-.04-.48,0-.97,.15-1.42,.13-.26,.35-.42,.58-.45,.61-.19,1.25-.24,1.87-.15"/><path id="path4531" class="cls-13" d="M148.57,140.47h0c-1.17,.26-2.36,.3-3.54,.12-.11-.05-.2-.12-.29-.21-.05-.06-.08-.14-.09-.22,0-.07,.02-.14,.06-.17,.07-.03,.14-.04,.21-.03,2.42,.4,4.88-.28,6.98-1.93,1.3-.71,2.57-1.48,3.81-2.33,1.56-.91,3.32-.95,4.91-.12,.2,.13,.33,.4,.33,.69,.02,1.76-.72,3.39-1.91,4.17-.62,.67-1.34,1.16-2.12,1.43-.25,.02-.48-.17-.59-.47-.77-1.31-2.04-1.91-3.25-1.54-1.51,.13-3.02,.33-4.52,.61"/><path id="path4533" class="cls-13" d="M163.8,132.01h0c-1.18-1-2.35-2.01-3.52-3.03-.09-.09-.19-.16-.3-.19-.09,0-.18,.03-.25,.11-.16,.18-.28,.4-.38,.64-.82,1.65-2.01,2.91-3.39,3.61-.66,.43-1.36,.74-2.08,.92-.14,.06-.29,.1-.44,.1l-.14-.04c-.1,0-.19-.04-.28-.1-.07-.06-.12-.16-.13-.27,0-.11,.02-.22,.08-.3,.07-.09,.16-.16,.25-.2,1.53-.94,2.41-3.1,2.19-5.33-.25-2.68-1.05-5.22-2.32-7.33-.17-.47-.33-.95-.49-1.42-.15-.34-.43-.51-.72-.44-1.6,.34-3.24-.26-4.5-1.64-.61-.56-1.16-1.23-1.63-1.98-.12-.2-.33-.26-.49-.13-.19,.17-.36,.36-.51,.58-.45,.52-.92,1.03-1.38,1.52l-.48,.41c-.64,.28-1.34,.02-1.77-.66-.5-.53-.96-1.12-1.39-1.76-.11-.15-.25-.24-.4-.25-.15,0-.3,.1-.4,.26-1.23,1.9-2.96,3.11-4.83,3.39-.43,0-.86-.04-1.28-.13-.2-.05-.4,.04-.53,.24-.55,1.08-1.06,2.19-1.53,3.33-.86,1.73-1.48,3.66-1.81,5.69-.05,2.2,.82,4.26,2.27,5.32,.12,.1,.24,.21,.35,.32,.02,.03,.03,.07,.03,.11,0,.05-.02,.09-.04,.13-.1,.14-.23,.22-.38,.22-2.62-.26-4.98-2.23-6.3-5.28-.06-.15-.17-.26-.3-.29-.12-.04-.26,0-.36,.1-1.75,1.58-3.56,3.04-5.43,4.36-.36,.43-.57,1.04-.58,1.68-.12,2.35,.76,4.6,2.28,5.8,.15,.14,.28,.33,.37,.55,.03,.08,.04,.17,.02,.26-.02,.07-.06,.13-.12,.15-.31,.08-.62,.05-.91-.09-2.13-1.12-3.66-3.65-4.02-6.66-.35-1.23-.43-2.56-.25-3.85,.1-.46,.37-.83,.71-.99,.78-.47,1.5-1.09,2.15-1.84,.93-.82,1.8-1.75,2.61-2.78,.2-.23,.46-.35,.72-.32,.7,.15,1.41,.18,2.12,.11,1.75-.34,3.31-1.68,4.27-3.66,.7-1.21,1.02-2.74,.91-4.26,0-.11-.06-.22-.12-.3-.03-.03-.06-.05-.1-.05s-.08,.01-.12,.04c-1.7,1.58-3.69,2.52-5.75,2.73-.25,.03-.48-.18-.55-.5-.02-.17,0-.35,.1-.48,.28-.35,.58-.69,.9-.99,.79-.81,1.38-1.91,1.71-3.16,.02-.17,0-.35-.07-.5-.41-.55-.9-.98-1.45-1.24-.7-.52-1.36-1.13-1.98-1.82-.15-.15-.35-.17-.52-.04-1.06,.7-2.22,1.06-3.4,1.05-.12-.03-.24-.09-.35-.18-.12-.11-.19-.31-.15-.5,.05-.25,.15-.48,.29-.66,.46-.61,.81-1.35,1.01-2.18,.03-.53-.04-1.07-.19-1.57-.05-.36-.19-.69-.39-.92-.15-.16-.36-.16-.5,0-.43,.51-.9,.95-1.4,1.31-1.58,.74-3.33,.2-4.52-1.38-.64-.98-1.09-2.16-1.3-3.43l-.24-.96c-.02-.06-.06-.11-.11-.14-.03-.02-.07,0-.09,.03-.09,.15-.16,.32-.2,.5-.7,1.65-.72,3.66-.03,5.32,.3,1.81,1.2,3.34,2.45,4.15,.56,.36,1.15,.65,1.76,.86,.04,.02,.08,.06,.11,.11,.02,.04,.03,.08,.03,.12,0,.18-.11,.33-.24,.37-.31,.07-.64,.06-.95-.05-2.62-.52-4.98-2.42-6.54-5.27-.86-1.8-1.29-3.89-1.24-6.02,0-.29-.06-.57-.14-.84-.06-.2-.22-.31-.38-.25-.48,.28-.86,.78-1.08,1.41-1.18,2.34-1.4,5.32-.59,7.93,.61,2.79,2.07,5.1,4.03,6.37,.32,.23,.61,.54,.84,.91,.06,.12,.05,.28-.03,.38l-.11,.06c-.47,.12-.94,.11-1.41-.01-2.1-.42-3.95-2.09-5.01-4.55-.74-1.55-1.34-3.21-1.78-4.95-.03-.11-.07-.2-.14-.28-.07-.06-.15-.07-.22-.05-.08,.03-.14,.09-.18,.18-.09,.21-.14,.45-.12,.69,.05,2.73,.72,5.38,1.91,7.6,2.76,4.24,6.82,6.57,11.02,6.33,1.67-.42,3.36-.73,5.05-.91,0,0,.03,.01,.04,.03v.05c-.02,.09-.05,.16-.1,.22-.79,.91-1.81,1.36-2.85,1.26-1.57,.53-3.17,.95-4.77,1.26-2.38,.2-4.77,0-7.11-.59-3.44-.78-6.39-3.75-7.89-7.96-.16-.28-.4-.47-.66-.52-1.77-.47-3.46-1.36-4.98-2.64-1.92-1.32-3.31-3.72-3.79-6.54-.04-.24,.07-.47,.24-.54,.29-.01,.57,.16,.75,.47,1.27,1.77,2.78,3.2,4.45,4.22,.57,.2,1.16,.31,1.75,.32,.21-.06,.35-.31,.33-.59-.04-.76-.21-1.5-.5-2.15-.6-1.87-.9-3.88-.9-5.92,0-.18,.08-.34,.2-.41,.11-.04,.23-.06,.35-.06,1.36,.09,2.7-.57,3.68-1.84,1.16-1.18,2.29-2.4,3.4-3.67,1.39-1.53,3.02-2.62,4.77-3.19,2.23-.5,4.52-.24,6.66,.77,.92,.53,1.85,1.01,2.79,1.45,.13,.1,.28,.14,.43,.11,.34-.14,.62-.45,.8-.86,.59-.92,.73-2.21,.36-3.31-.05-.11-.07-.24-.07-.37,0-.24,.14-.44,.32-.45,.25-.05,.51,.06,.69,.3,1.88,1.87,3.33,4.4,4.18,7.31,.54,1.73,1.36,3.27,2.4,4.53,.74,.57,1.6,.82,2.45,.72,.13,0,.24,.11,.29,.26,.16,.48,.28,.97,.37,1.47,.26,.97,.55,1.92,.89,2.85,.07,.19,.18,.36,.32,.48,1.36,1.76,3.07,2.96,4.93,3.46,1.46,.37,2.96-.19,4.05-1.53,1.05-1.54,1.69-3.51,1.8-5.58,.43-3.83,.18-7.75-.74-11.43-.92-3.04-2.22-5.83-3.86-8.26-.06-.09-.1-.2-.12-.32,0-.11,.02-.21,.08-.29,.06-.07,.14-.11,.22-.09,.19,.04,.36,.13,.52,.27,3.88,2.71,6.6,7.69,7.34,13.46,.42,3.57,.47,7.21,.17,10.8-.09,.51-.14,1.04-.12,1.56l.09,.59c.46,.98,1.16,1.71,1.98,2.06,.22,.05,.45-.02,.63-.21,.65-.43,1.23-1.05,1.68-1.81,.14-.39,.18-.84,.11-1.26-.48-3.69-.4-7.46,.23-11.11,.43-3.39,1.54-6.57,3.22-9.18,1.36-2.04,3.04-3.67,4.91-4.78,.07-.04,.15-.04,.23,0,.06,.03,.1,.11,.1,.2,0,.12-.03,.24-.07,.35-.66,1.08-1.3,2.17-1.93,3.27-2.9,5.18-3.93,11.8-2.83,18.09,.26,1.63,.89,3.12,1.81,4.27,.97,1.18,2.28,1.71,3.57,1.46,1.96-.6,3.75-1.91,5.19-3.78,.67-1.18,1.16-2.54,1.43-3.98,.04-.19,.12-.36,.23-.48,.31-.18,.65-.25,.98-.2,1.41-.1,2.66-1.25,3.24-2.97,.85-2.23,1.83-4.36,2.93-6.38,.75-1.3,1.72-2.34,2.83-3.03,.07-.04,.15-.04,.22,0,.06,.04,.1,.13,.1,.22,0,.14-.03,.27-.07,.4-.34,1.42-.11,2.97,.61,4.1,.16,.21,.39,.29,.61,.2,1.43-.54,2.85-1.15,4.25-1.84,2.21-.55,4.48-.44,6.65,.32,1.62,.83,3.09,2.12,4.3,3.78,1.2,1.32,2.38,2.65,3.56,4,.13,.15,.29,.25,.46,.29,.83,.29,1.68,.5,2.54,.62,.14,.02,.27,.14,.32,.32,.04,.26,.06,.53,.03,.79-.06,1.99-.46,3.94-1.16,5.7-.18,.54-.31,1.11-.38,1.69,0,.15,.03,.29,.1,.4,.07,.06,.16,.1,.25,.1,1.7-.04,3.34-.87,4.63-2.35,.65-.72,1.29-1.45,1.91-2.2,.16-.13,.36-.17,.54-.12,.12,.06,.19,.21,.18,.38-.18,1.64-.77,3.14-1.69,4.26-1.94,2.62-4.49,4.3-7.23,4.76-.4,.15-.73,.53-.91,1.04-.77,1.61-1.7,3.07-2.76,4.36-.08,.09-.17,.15-.26,.19-.48,.28-.94,.63-1.36,1.06-2.82,1.76-5.95,2.45-9.05,1.99-1.87,.06-3.72-.39-5.46-1.32-.97-.18-1.93-.47-2.86-.86-.44-.25-.86-.56-1.26-.92-.02-.02-.03-.05-.03-.08,0-.02,0-.05,.03-.06,.07-.03,.15-.04,.22-.03,1.79,.33,3.57,.74,5.33,1.24,3.54,.28,7.02-1.27,9.72-4.33,1.25-1,2.19-2.58,2.62-4.45,.31-1.64,.52-3.31,.64-4.99,0-.13-.03-.26-.05-.38l-.05-.16c-.03-.06-.08-.11-.13-.12-.06-.01-.11,0-.16,.05-.09,.08-.15,.2-.2,.33-.73,3-2.05,5.68-3.84,7.75-1.33,1-2.84,1.52-4.38,1.49-.1,0-.2-.08-.25-.2-.03-.09-.02-.19,0-.29,.05-.27,.2-.49,.39-.59,1.28-.79,2.42-1.91,3.37-3.3,1.02-2.17,1.62-4.64,1.75-7.2-.05-2.04-.72-3.97-1.87-5.32-.09-.1-.21-.13-.32-.09-.19,.16-.31,.43-.31,.73,0,5.06-2.58,9.47-6.25,10.72-.89,.45-1.84,.66-2.8,.63-.09-.02-.17-.06-.24-.13-.05-.05-.08-.13-.07-.22,0-.08,.04-.16,.09-.2,.09-.06,.18-.09,.28-.1,1.86-.36,3.42-2.06,4.04-4.43,.73-1.88,.78-4.11,.13-6.04-.07-.16-.19-.27-.33-.28-.08,0-.15,.07-.18,.17-.07,.25-.13,.5-.17,.76-.13,1.6-.74,3.06-1.69,4.04-.14,.13-.31,.23-.48,.27-.81,.56-1.72,.8-2.62,.69-.88-.15-1.71-.68-2.35-1.51-.11-.12-.25-.16-.39-.1-.1,.06-.18,.16-.23,.28-.68,1.32-.55,3.1,.32,4.21,.13,.25,.27,.51,.4,.76,.06,.1,.09,.22,.09,.35,0,.11-.05,.2-.12,.25-.17,.12-.37,.18-.56,.19-.16,.04-.32,.03-.47-.04-.97-.22-1.91-.61-2.8-1.17-.17-.13-.38-.11-.54,.05-.98,1.12-2.08,2.04-3.26,2.73-.15,.12-.25,.3-.31,.52,0,.12,0,.24,.03,.36,.43,1.32,1.11,2.47,1.97,3.33,.25,.36,.49,.72,.72,1.09,.02,.05,.04,.11,.04,.16,0,.06-.02,.11-.04,.16-.05,.1-.13,.17-.22,.2-.2,.06-.4,.07-.61,.02-2.03-.17-3.97-1.2-5.53-2.94-.08-.06-.16-.11-.25-.12-.1-.02-.2,.07-.23,.2-.06,.31-.05,.63,.03,.93,.07,1.77,.59,3.45,1.49,4.76,1.04,1.59,2.48,2.61,4.05,2.84,.63-.04,1.26-.09,1.9-.14,.32,0,.63,.18,.83,.51,.28,.61,.65,1.14,1.1,1.53,.89,.85,1.76,1.74,2.6,2.67,.35,.23,.72,.41,1.09,.54,.22,.09,.37,.36,.37,.66,.17,3.2-.62,6.36-2.21,8.78-.75,1.15-1.81,1.83-2.95,1.9-.14,0-.27-.1-.31-.27-.05-.17,0-.37,.1-.48,.17-.22,.36-.41,.56-.58,1.18-1.1,1.99-2.77,2.28-4.65,0-.33-.03-.67-.13-.98-.29-1.06-.89-1.92-1.67-2.38-.23-.18-.46-.35-.7-.51"/><path id="path4535" class="cls-13" d="M166.4,181h0c1.6,1.21,3.38,1.93,5.21,2.1,1.8,.49,3.66,.44,5.44-.17,.16-.02,.32-.08,.47-.18,.1-.09,.14-.27,.09-.42-.08-.19-.22-.34-.37-.4-1.79-.81-3.45-2.09-4.87-3.75-.65-.84-1.18-1.85-1.54-2.96-1.67-3.5-2.46-7.61-2.28-11.75-.21-1.84,.23-3.7,1.21-5.04,.31-.63,.83-1.01,1.39-1.04,.16,.06,.31,.12,.47,.2,.24,.1,.47,.22,.7,.36,1.77,1.74,3.02,4.25,3.56,7.1,.27,1.32,.48,2.67,.64,4.02,.03,.13,.08,.25,.15,.34,.1,.08,.24,.06,.32-.06,.1-.17,.18-.36,.23-.57,.25-1.69,.57-3.37,.97-5.01,.3-3.27,.17-6.58-.39-9.79-.07-.26-.12-.53-.13-.8,0-.17,.06-.33,.17-.42s.25-.09,.36,0c.79,.61,1.53,1.34,2.19,2.19,2.07,2.6,3.77,5.69,5.03,9.1,.06,.22,.16,.43,.28,.6,.07,.12,.19,.16,.3,.13,.03,0,.06-.04,.07-.07,.02-.05,.04-.11,.04-.17-.06-1.22-.2-2.42-.4-3.61-.49-3.36-.41-6.82,.23-10.14,.04-1.19,.41-2.32,1.04-3.17,1.36-2.12,3.25-3.51,5.31-3.92,2.13-.51,4.32-.36,6.4,.45,1.55,.83,2.93,2.16,4.01,3.87,.91,.98,1.63,2.26,2.07,3.71,.64,1.7,.26,3.77-.9,4.89-1.61,1.04-3.43,1.35-5.18,.88-2.8-.72-5.58-1.64-8.31-2.74-.33-.19-.68-.26-1.03-.2-.05,.02-.08,.06-.1,.12-.02,.08-.02,.16,0,.23,.13,.31,.28,.6,.46,.87,2.62,2.52,5.48,4.55,8.51,6.03,1.45,.59,2.88,1.26,4.29,2,.15,.07,.31,.09,.47,.05,.24-.02,.48-.05,.71-.09,3.24-.67,6.42-1.76,9.5-3.27,1.23-.39,2.43-.99,3.55-1.78,.98-.49,1.93-1.06,2.86-1.69,1.89-1.07,3.72-2.36,5.45-3.84,.19-.1,.37-.27,.5-.48,.1-.14,.12-.34,.05-.5-.08-.16-.21-.26-.36-.28-1.4-.12-2.8-.19-4.2-.23-2.56-.18-5.06-1.03-7.37-2.5-1.26-.63-2.44-1.52-3.51-2.63-.15-.09-.27-.23-.35-.41-.06-.18-.06-.38,0-.56,.15-.5,.3-1,.45-1.5,1.37-3.46,1.45-7.56,.22-11.11-.11-.56,.03-1.16,.35-1.55,1.32-1.52,2.74-2.87,4.25-4.04,.19-.09,.36-.24,.49-.45,1.05-1.61,2.13-3.19,3.24-4.73,.97-2.24,1.82-4.57,2.52-6.97,.67-3.01,1.15-6.09,1.46-9.21,.05-.33-.01-.67-.17-.94-.48-.64-.98-1.26-1.5-1.85-.18-.17-.29-.44-.3-.74,0-.29,.09-.58,.26-.76,.59-.64,1.2-1.24,1.82-1.82,.21-.21,.36-.52,.41-.86,.06-3.35-.36-6.69-1.23-9.84-.81-3.68-1.99-7.19-3.49-10.46-.17-.51-.43-.96-.76-1.31-.11-.09-.25-.12-.37-.09-.13,.02-.23,.14-.27,.3-.16,.82-.39,1.6-.68,2.35-.53,2.04-1.53,3.8-2.86,5.02-.82,.82-1.69,1.54-2.6,2.16-1.75,1.02-3.76,.91-5.44-.3-.92-1.35-1.31-3.19-1.06-4.98,.18-2.15,.75-4.22,1.67-6.01,1.06-1.73,2.49-2.98,4.11-3.61,1.92-.45,3.68-1.72,5.02-3.61,.13-.16,.28-.27,.45-.33l.23-.02c.39-.07,.79-.1,1.19-.1,1.59-.17,3.07-1.16,4.12-2.77,.26-.47,.67-.76,1.11-.79,2.03,0,3.95-1.18,5.28-3.22,.18-.25,.41-.44,.66-.56,.96-.1,1.92-.34,2.84-.73,1.56-1.13,3.02-2.52,4.32-4.13,.03-.05,.06-.1,.06-.16,0-.04,0-.09-.02-.13-.08-.13-.21-.18-.33-.13-.18,.09-.34,.19-.51,.31-1.64,1.28-3.56,1.74-5.43,1.32-.37-.21-.75-.4-1.13-.58-.19-.07-.4,0-.55,.19-.71,1.18-1.59,2.16-2.58,2.89-1.2,.59-2.5,.73-3.75,.41-.15-.03-.29,.03-.41,.16-.61,.93-1.3,1.78-2.04,2.53-.22,.23-.45,.43-.71,.58-.94,.28-1.89,.42-2.85,.42-.23,0-.45,.11-.61,.34-.12,.18-.24,.34-.38,.5-.63,1.16-1.55,2-2.59,2.38-2.04,.81-4.03,1.86-5.93,3.12-1.22,1.05-2.32,2.33-3.27,3.79-1.6,2.84-2.47,6.28-2.49,9.83,.11,1.18,.29,2.34,.53,3.49v.31l.22,.65c.27,.66,.58,1.3,.92,1.91,.2,.36,.26,.83,.16,1.26-.21,.94-.38,1.89-.51,2.86,.12,1.39,.3,2.77,.53,4.13,.29,2.56,1.27,4.9,2.75,6.56,.69,.42,1.39,.8,2.1,1.15,.3,.2,.62,.3,.96,.31,.16-.02,.28-.2,.28-.41-.01-.19-.08-.37-.18-.51-.98-1.18-1.75-2.62-2.28-4.24-.09-.25-.14-.53-.16-.81,.04-.32,.26-.53,.5-.49,.45,.09,.9,.12,1.36,.08,1.23-.29,2.43-.79,3.56-1.49,.3-.12,.63,.08,.75,.47,.6,1.59,.98,3.31,1.12,5.08,.14,2.01,.06,4.04-.24,6.02-.13,2.38-.86,4.63-2.08,6.38-1.3,1.48-2.46,3.16-3.44,5.03-.82,1.5-1.13,3.39-.85,5.21,.03,.14,.1,.25,.21,.29,.1,.04,.22,0,.29-.09,.11-.14,.18-.31,.22-.5,.06-.49,.19-.96,.38-1.39,1.1-1.52,2.34-2.87,3.68-4,1.62-1.1,2.89-2.95,3.59-5.19,.57-1.93,.91-3.97,1.02-6.05,.25-2.97,.13-5.97-.35-8.89-.36-1.96-.84-3.87-1.45-5.71-.16-.3-.45-.41-.71-.27-.83,.46-1.7,.75-2.6,.87-1.37,.58-2.84,.61-4.22,.07-.13-.05-.25-.14-.34-.27-.08-.11-.12-.26-.09-.41,.05-.16,.15-.29,.27-.34,1.37-.49,2.75-.95,4.13-1.38,2.05-1.24,3.85-3.14,5.21-5.54,.14-.27,.3-.52,.49-.74,.1-.1,.23-.14,.35-.1s.22,.15,.28,.3c1.35,2.87,2.3,6.05,2.79,9.38,.19,.63,.03,1.35-.39,1.74-.72,.46-1.4,1.02-2.04,1.66-.16,.16-.27,.4-.29,.67-.03,.27,.03,.53,.16,.74,.83,1.29,1.58,2.66,2.25,4.1,.35,.63,.48,1.44,.33,2.21-.27,4.15-1.23,8.17-2.81,11.75-.42,1.31-1.01,2.5-1.74,3.54-2.13,2.19-4.28,4.35-6.45,6.48-.17,.18-.39,.23-.59,.12-.78-.43-1.54-.92-2.29-1.46-1.85-.78-3.8-.98-5.72-.57-2.13,.41-4.3,.37-6.42-.13-.08-.02-.15-.04-.22-.08-.09-.04-.17-.09-.24-.15-.41-.34-.83-.64-1.27-.9-.09-.07-.19-.11-.29-.13-.05,0-.11,.03-.14,.08-.04,.05-.06,.12-.05,.19,0,.12,.04,.24,.1,.34,.35,.52,.74,1,1.17,1.41,2.24,1.34,4.67,2.05,7.13,2.09,1.49-.02,2.97,.44,4.3,1.35,1.68,.78,3.02,2.48,3.7,4.68,.67,2.19,.61,4.67-.17,6.8-.07,.18-.19,.31-.33,.39-.14,.04-.29,0-.42-.1-1.68-1.65-3.25-3.5-4.67-5.53-.49-1.03-.95-2.09-1.37-3.17-.07-.24-.18-.46-.32-.64-.99-.87-2.14-1.36-3.33-1.4-3.16-.71-6.39-.56-9.5,.45-1.39,.58-2.83,.96-4.28,1.14-2.16,.9-4.4,1.45-6.65,1.63-1.49,.35-3.01,.28-4.47-.2-.2-.11-.42-.12-.62-.03-.1,.07-.14,.23-.12,.37,.05,.21,.15,.39,.29,.52,1.46,1.02,3.04,1.7,4.68,2,1.99,0,3.97-.17,5.94-.52,1.81-.46,3.63-.82,5.46-1.08,.5-.16,1.01-.22,1.52-.19,.07,0,.14,.06,.2,.13,.04,.07,.04,.17,0,.24-.08,.18-.21,.32-.36,.39-.39,.2-.77,.46-1.12,.77-.91,.54-1.78,1.19-2.61,1.92-1.34,1.04-2.68,2.07-4.03,3.09-1.51,.78-3.02,1.58-4.52,2.39-2.92,1.3-5.96,2.06-9.04,2.27-1.66,.08-3.32,.13-4.97,.15-2.72-.36-5.42-.91-8.1-1.65-1.36-.48-2.69-1.12-3.98-1.91-.24-.15-.52-.06-.68,.21-.92,1.69-2.19,2.99-3.65,3.73-2.18,1.62-4.79,1.86-7.12,.65-1.88-.81-3.52-2.38-4.69-4.51-.19-.35-.52-.5-.82-.37-2.32,1.37-4.8,2.19-7.33,2.42-1.86,.58-3.78,.81-5.69,.68-1.03-.12-2.07-.18-3.11-.17-2.07-.27-4.12-.66-6.16-1.15-2.98-.98-5.86-2.44-8.56-4.37-2.47-2.18-5.04-4.16-7.69-5.93-.08-.04-.14-.12-.18-.22-.03-.07-.03-.17,0-.24,.04-.08,.11-.13,.18-.15,.11-.04,.22-.07,.34-.07,1.92,.23,3.82,.69,5.68,1.38,2.29,.4,4.59,.68,6.9,.86,1.54-.15,3.04-.65,4.45-1.49,.21-.06,.39-.2,.54-.4,.09-.13,.12-.32,.07-.48-.05-.16-.17-.28-.3-.29l-.14,.03c-.19,.06-.39,.11-.58,.15-2.79,.23-5.6-.13-8.3-1.09-2.11-.82-4.26-1.5-6.42-2.04-2.46-1.02-5.04-1.43-7.6-1.21-1.7,0-3.38,.37-4.99,1.13-.17,.06-.32,.17-.44,.33-.41,.68-.78,1.4-1.11,2.17-1.48,2.73-3.29,5.13-5.34,7.09-.15,.14-.33,.2-.51,.18-.15-.06-.27-.18-.35-.36-.43-1.38-.61-2.88-.53-4.37,0-2.24,.82-4.34,2.19-5.64,1.82-1.83,4.04-2.78,6.32-2.7,1.77,.02,3.53-.3,5.23-.96,1.14-.23,2.19-.95,2.99-2.05,.12-.15,.2-.34,.24-.55,.03-.15-.04-.31-.15-.35-.1-.02-.2,.01-.28,.09-.3,.23-.59,.45-.89,.67-1.28,.71-2.67,1-4.04,.83-1.11-.15-2.21-.3-3.32-.44-1.66-.36-3.35-.33-5,.1-.97,.66-1.98,1.24-3.01,1.72-.16,.05-.32,.02-.46-.09-.89-.95-1.79-1.9-2.69-2.84-2.74-2.19-4.91-5.45-6.2-9.35-.41-1.48-.87-2.92-1.4-4.33-.11-.24-.18-.5-.22-.76-.37-2.07-.5-4.21-.39-6.34,.02-.34,.11-.66,.26-.93,.67-.94,1.32-1.91,1.94-2.92,.35-.36,.58-.88,.67-1.46,.06-.26,.01-.55-.13-.74-.62-.77-1.34-1.38-2.12-1.81-.22-.14-.39-.39-.47-.69-.11-.63-.1-1.28,.03-1.91,.77-2.71,1.68-5.35,2.72-7.9,.12-.44,.36-.81,.68-1.02,.26-.07,.52,.1,.65,.41,.5,1.07,1.1,2.05,1.79,2.91,1.49,2.24,3.53,3.7,5.76,4.11,.67,.2,1.33,.46,1.97,.79,.12,.07,.2,.22,.2,.4,0,.17-.07,.34-.18,.42-.4,.26-.83,.42-1.28,.45-2,.04-3.98-.48-5.81-1.55-.16-.08-.34-.07-.48,.05-.18,.17-.32,.39-.42,.65-.26,1.06-.56,2.1-.89,3.13-.89,3.8-1.19,7.8-.88,11.75,.07,2.68,.64,5.3,1.64,7.63,1.28,1.73,2.7,3.27,4.23,4.6,1.13,.87,2.01,2.23,2.49,3.86,.06,.2,.13,.39,.23,.57,.07,.12,.2,.14,.29,.05,.07-.08,.11-.19,.13-.3,.07-.49,.12-.98,.13-1.48-.28-2.6-1.26-4.97-2.76-6.67-1.23-1.36-2.19-3.1-2.79-5.06-1.39-4.58-1.28-9.72,.3-14.18,.07-.32,.23-.6,.44-.79,.12-.1,.28-.12,.41-.03,1.11,.77,2.29,1.35,3.5,1.71,.07,.02,.15,.03,.22,.03,.16,0,.33-.03,.49-.06,.34-.11,.69-.12,1.03-.02,.12,.05,.2,.19,.21,.36,0,.14-.02,.27-.06,.4-.37,1.69-1.11,3.19-2.12,4.32-.19,.16-.34,.37-.45,.63-.07,.15-.04,.35,.07,.45l.13,.07c.1,.04,.2,.06,.3,.06,1.56-.34,2.97-1.45,3.96-3.1,1.86-3.25,2.53-7.44,1.82-11.41l-.08-.32c-.03-.22,0-.44,.05-.64,.35-.9,.78-1.74,1.27-2.51l.15-.64c.14-.75,.32-1.49,.53-2.21,.26-1.69,.21-3.45-.16-5.11-.27-1.67-.74-3.27-1.38-4.75-1.3-2.56-3.02-4.67-5.03-6.19-1.95-1.14-3.92-2.18-5.93-3.12-.68-.74-1.28-1.6-1.77-2.56-.12-.16-.28-.25-.44-.25-1.27,.06-2.53-.21-3.72-.81-.85-.76-1.6-1.69-2.24-2.76-.12-.16-.28-.25-.45-.25-1.02,.15-2.05,.02-3.03-.38-1.2-.71-2.26-1.79-3.08-3.17-.05-.09-.12-.17-.19-.23-.12-.09-.25-.1-.38-.04-.29,.15-.58,.3-.88,.44-1.02,.19-2.06,.2-3.08,.04-1.03-.39-2.02-.97-2.94-1.7-.08-.05-.17-.06-.26-.04-.03,0-.06,.03-.07,.07-.02,.03-.02,.08-.02,.12,.02,.12,.07,.23,.14,.32,1.07,1.28,2.17,2.5,3.31,3.67,1.01,.59,2.07,.97,3.17,1.13,.46,.05,.88,.34,1.18,.8,1.26,2.07,3.17,3.26,5.17,3.22,.23-.02,.46,.08,.64,.28,.62,.91,1.31,1.74,2.05,2.48,1.05,.91,2.31,1.31,3.56,1.13,.25-.02,.49,.08,.68,.29,.33,.41,.66,.83,.98,1.26,.71,.82,1.52,1.47,2.39,1.94,1.67,.64,3.26,1.6,4.72,2.87,.32,.25,.6,.57,.83,.95,.54,1.25,.98,2.56,1.31,3.93,.81,2.35,.67,5.09-.37,7.28-.07,.22-.19,.42-.33,.57-.94,.66-2.01,.97-3.07,.87-1.29-.12-2.53-.72-3.56-1.75-1.35-1.12-2.5-2.63-3.35-4.42-.51-.97-.9-2.03-1.17-3.16-.07-.48-.21-.94-.4-1.35-.07-.13-.19-.19-.31-.15-.16,.06-.31,.18-.42,.34-1.38,2.5-2.51,5.22-3.37,8.1-.01,.05-.02,.1-.02,.16-.02,.27-.03,.53-.03,.8v.31l-.19,.66c-.76,2.25-1.37,4.59-1.81,6.99-.18,1.34-.31,2.7-.39,4.06,0,.15,.04,.29,.11,.42,.14,.2,.31,.38,.49,.52,.84,.48,1.55,1.26,2.07,2.26,.1,.22,.09,.49-.02,.69-.52,.78-1.09,1.5-1.71,2.14-.18,.17-.28,.44-.27,.73,0,.62,0,1.25,.03,1.87,.28,1.81,.62,3.61,1.02,5.38,.58,5.33,2.54,10.23,5.53,13.83,.95,.87,1.88,1.77,2.8,2.7,.82,.83,1.59,1.76,2.3,2.76,.17,.25,.23,.59,.15,.91-.48,1.44-.79,2.98-.91,4.55-.13,2.74,.32,5.47,1.3,7.88,.15,.39,.1,.87-.13,1.18-3.28,2.92-7.08,4.63-11.02,4.94-1.46,.02-2.92,.04-4.38,.04-.11,0-.22,.04-.3,.14s-.12,.24-.11,.39c.02,.16,.09,.31,.19,.41,1.35,1.31,2.81,2.41,4.35,3.27,1.6,1.32,3.27,2.48,4.99,3.47,1.68,.75,3.34,1.53,5,2.35,2.55,1.2,5.17,2.11,7.84,2.72,.1,.02,.2,.02,.29,0,.14-.03,.29-.08,.42-.14,2.11-.71,4.17-1.65,6.17-2.81,2.36-1.14,4.59-2.73,6.6-4.74,.18-.16,.29-.42,.31-.71,0-.06,0-.12,0-.18,0-.03-.02-.07-.04-.09-.08-.07-.17-.1-.26-.09-.3,.05-.59,.11-.89,.18-2.1,.88-4.24,1.55-6.41,1.99-1.87,.67-3.83,.71-5.71,.11l-.24-.04-.47-.35c-1.34-1.13-1.87-3.4-1.24-5.34,.37-1.5,1.12-2.79,2.12-3.64,1.37-2.1,3.24-3.51,5.29-3.99,1.55-.61,3.2-.66,4.76-.13,2.89,.42,5.38,2.92,6.49,6.51,.61,3.1,.77,6.33,.47,9.5-.06,1.52-.3,3.02-.72,4.43-.08,.23-.1,.48-.07,.73,0,.08,.06,.16,.12,.19,.07,.04,.14,.04,.21,.02,.25-.1,.47-.32,.61-.61,1.56-4.31,3.94-8.01,6.89-10.72,.17-.18,.36-.34,.57-.46,.07-.05,.15-.04,.22,0,.06,.07,.09,.16,.1,.26,.02,.16,0,.32,0,.47-.45,2.59-.67,5.24-.66,7.9,.04,2.68,.41,5.34,1.11,7.85,.03,.2,.11,.38,.22,.51,.02,.03,.06,.04,.09,.04,.02,0,.05-.02,.06-.05l.07-.31c.16-1.11,.38-2.21,.65-3.28,.22-1.6,.7-3.11,1.41-4.43,.6-1.92,1.81-3.38,3.3-3.97,.24-.09,.49-.07,.72,.06,1.13,.91,1.89,2.46,2.08,4.2,.18,2.02,.09,4.06-.26,6.03-.24,2.66-1.01,5.17-2.24,7.29-.88,2.18-2.23,3.97-3.87,5.12-.62,.85-1.45,1.39-2.34,1.52-.21,.03-.4,.12-.58,.27-.09,.08-.14,.22-.13,.37,.02,.14,.09,.27,.2,.31,1.7,.67,3.49,.86,5.25,.58,1.38-.06,2.74-.41,4.04-1.04,2.47-1.04,4.69-2.94,6.43-5.5,1.43-2.26,2.53-4.86,3.23-7.66,.14-.45,.11-.96-.07-1.38-.03-.06-.07-.11-.13-.12-.06-.02-.12,0-.17,.04-.1,.1-.2,.21-.28,.33-.41,.71-.88,1.37-1.39,1.96-.33,.37-.76,.52-1.18,.42s-.79-.44-1.01-.94c-.27-1.84-.02-3.75,.7-5.36,.46-1.34,1.31-2.37,2.36-2.84s2.19-.34,3.16,.36c.51,.63,.94,1.36,1.28,2.16,.8,2.96,1.59,5.92,2.37,8.88,.46,2.54,1.5,4.84,2.97,6.57,.13,.18,.3,.3,.48,.35,.1,.03,.2,0,.27-.09s.11-.22,.1-.35c0-.16-.04-.33-.06-.49-.93-4.11-.58-8.56,.98-12.32,.38-1.54,1.35-2.68,2.54-3.01,1.19-.33,2.42,.21,3.23,1.42,.13,.23,.28,.46,.44,.66,.18,.22,.45,.23,.64,.02,.96-1.77,2.67-2.48,4.22-1.77,.59,.39,1.09,.97,1.45,1.7,.7,1.49,1.25,3.09,1.66,4.77,.32,2.83,.22,5.72-.29,8.5-.07,.22-.13,.44-.17,.67-.03,.17,.02,.34,.11,.45s.23,.15,.35,.09c.94-.75,1.73-1.79,2.3-3.03,.88-2.24,1.62-4.57,2.21-6.98,.36-1.74,.83-3.43,1.41-5.07,.25-1.56,1.2-2.76,2.38-3.02,1.07-.3,2.18,0,3.09,.79,.91,.8,1.55,2.05,1.76,3.48,.35,1.1,.48,2.3,.37,3.49-.02,.52-.22,1-.55,1.3-.32,.3-.73,.38-1.1,.22-.89-.5-1.62-1.42-2.02-2.6-.06-.13-.14-.24-.23-.31-.04-.03-.08-.04-.12-.04s-.08,.02-.11,.05c-.17,.19-.25,.48-.23,.77,.07,.75,.2,1.49,.41,2.2,1.15,4.52,3.49,8.34,6.59,10.74,.23,.17,.47,.31,.71,.44l-.04-.05Zm-19.73-25.04h0c1.69,.06,3.37,.42,4.98,1.09,1.77,.37,3.58,.08,5.24-.85,1.05-.23,2.05-.78,2.92-1.6,.1-.12,.16-.29,.14-.47-.04-.18-.14-.31-.28-.34-.29-.06-.59-.11-.88-.16-1.99-.32-3.98-.75-5.94-1.3-1.13-.18-2.24-.54-3.31-1.07-.19-.1-.39-.13-.59-.08-.16,.09-.3,.22-.42,.38-1.41,2.17-3.51,3.34-5.66,3.13-1.87,.24-3.76-.2-5.46-1.28-.77-.67-1.48-1.44-2.13-2.29-.21-.2-.48-.26-.73-.16l-.24,.13c-.39,.17-.78,.3-1.19,.39-1.19,.26-2.37,.56-3.55,.9-1.73,.21-3.45,.46-5.18,.74-.1,.03-.2,.1-.27,.2-.09,.11-.12,.3-.05,.45l.09,.16c.19,.27,.41,.52,.65,.72,.99,.6,2.02,1.06,3.08,1.36,1.67,.85,3.49,1,5.22,.45,1.86-.69,3.81-.81,5.71-.36,1.08,.83,2.32,1.21,3.57,1.09,1.05-.26,2.08-.63,3.08-1.12,.39-.1,.79-.14,1.19-.12"/><path id="path4537" class="cls-13" d="M134.73,236.91h0c1.05,1.51,2.38,2.61,3.86,3.18,1.08,.82,2.33,1.14,3.56,.9,1.61-.48,3.15-1.36,4.51-2.6,1.49-1.28,2.62-3.18,3.21-5.41,.98-4.01,3.18-7.29,6.05-9.05,1.15-.46,2.27-1.05,3.35-1.78,1.01-.19,1.93-.86,2.6-1.88,.95-1.64,1.64-3.52,2.03-5.53,0-.22-.08-.43-.21-.56-.13-.15-.27-.3-.41-.44-2.23-2.19-4.12-4.93-5.58-8.07-1.81-2.4-2.52-5.91-1.86-9.2,.97-2.13,1.01-4.79,.09-6.97l-.14-.3-.08-.64c-.12-1.37-.16-2.76-.1-4.14-.05-1.66,.24-3.31,.85-4.75,.39-1.97,.55-4,.48-6.04,.05-1.6-.12-3.19-.51-4.7-.07-.27-.25-.47-.46-.5-.21-.04-.42,.09-.54,.33-.39,1.3-.77,2.61-1.14,3.92-.11,.27-.18,.56-.23,.87-.02,.13,0,.27,.05,.38,.15,.42,.29,.85,.42,1.29,.33,1.58,.24,3.26-.24,4.77-.41,1.29-.86,2.57-1.34,3.82-.27,1.7-.14,3.48,.38,5.07,.51,1.48,.65,3.15,.39,4.74-.57,1.64-.88,3.41-.92,5.21,0,.22-.15,.39-.31,.41-.14,0-.27-.11-.35-.26-1.22-2.23-2.58-4.34-4.05-6.29-.66-1.11-1.47-2.05-2.38-2.79-.1-.07-.21-.07-.31,0-.09,.08-.15,.22-.14,.37,0,.13,.03,.26,.07,.38,.78,3.32,1.15,6.79,1.08,10.27,.09,1.06-.02,2.14-.34,3.11-.02,.05-.06,.08-.1,.08s-.09,0-.12-.04c-.15-.17-.26-.38-.32-.62-.18-1.2-.35-2.4-.52-3.59-.03-.33-.21-.6-.46-.66-.17,0-.33,.1-.44,.25-.77,1.25-1.58,2.46-2.41,3.63-.12,.14-.29,.2-.44,.15-.17-.1-.31-.27-.41-.48-.41-1.11-.94-2.14-1.56-3.05-.11-.23-.25-.42-.42-.56-.1-.07-.23-.08-.34-.03-.12,.05-.2,.18-.22,.34-.14,1.03-.33,2.05-.58,3.04-.06,.5-.21,.97-.44,1.38-.03,.04-.07,.06-.11,.07-.04,0-.08,0-.12-.04-.12-.13-.19-.31-.21-.51-.13-1.77-.16-3.55-.08-5.32,.2-2.58,.62-5.12,1.24-7.58,.04-.15,.06-.32,.05-.48,0-.17-.08-.32-.19-.38-.14-.04-.3,0-.42,.11-2.37,2.65-4.53,5.62-6.45,8.85-.06,.1-.13,.17-.22,.22-.04,.02-.09,.02-.13-.02-.11-.12-.18-.3-.2-.49,0-1.71-.24-3.4-.7-5-.23-1.38-.13-2.82,.27-4.13,.65-2.23,.74-4.68,.26-6.98-1.28-2.62-1.49-5.93-.55-8.8,.07-.19,.07-.41,0-.61-.43-1.51-.92-2.99-1.48-4.42-.06-.19-.14-.36-.26-.5-.12-.17-.31-.19-.45-.05-.07,.09-.14,.2-.19,.31-.51,1.65-.82,3.4-.92,5.18-.11,2.26,.08,4.52,.58,6.68,.69,1.97,.95,4.17,.76,6.33-.42,1.57-.8,3.15-1.14,4.76-.13,1.61,0,3.23,.4,4.76,.44,1.07,.59,2.3,.42,3.5-.71,2.74-1.74,5.31-3.06,7.61-1.38,2.28-2.99,4.3-4.78,6l-.23,.2c-.19,.19-.31,.48-.32,.8,.06,1.12,.33,2.2,.79,3.14,.41,1.64,1.26,3.02,2.37,3.9,1,.25,1.97,.74,2.84,1.45,2.51,1.1,4.7,3.24,6.25,6.11,.77,2.16,1.54,4.33,2.31,6.5,.28,.72,.66,1.36,1.12,1.89v-.03Zm3.07-24.59h0c-.16,.8,.04,1.64,.5,2.18,.47,.53,1.13,.66,1.69,.32,.65-.5,1.43-.61,2.15-.33,.24,.13,.47,.26,.71,.38,.44,.34,.98,.34,1.43,.02,.45-.32,.74-.93,.77-1.61-.16-2.07-.54-4.09-1.15-6-.08-.41-.23-.78-.45-1.09-.09-.11-.22-.13-.33-.06-.08,.07-.15,.16-.21,.26-.4,.85-.73,1.75-.98,2.7-.15,.42-.52,.61-.84,.43l-.09-.1c-.06-.11-.1-.23-.12-.36-.11-.84-.31-1.66-.62-2.41-.07-.24-.2-.44-.36-.58-.1-.08-.22-.09-.32,0-.08,.08-.15,.19-.21,.31-.46,1.43-.88,2.88-1.26,4.35-.17,.5-.27,1.03-.32,1.58h0Zm-7.83-5.38c-.57,2.25-.53,4.7,.12,6.92,.42,.9,1.09,1.53,1.86,1.78,.35,.27,.74,.44,1.14,.49,.26-.05,.5-.16,.73-.31,.52-.22,.97-.66,1.27-1.26,.29-1.24,.29-2.56,.02-3.8-.97-3.54-1.3-7.34-.97-11.09,.06-.41,.05-.82-.02-1.22l-.04-.13c-.04-.07-.09-.11-.16-.12-.09,0-.18,.05-.24,.13-1.76,2.42-3.05,5.39-3.73,8.63l.02-.02Zm18.26,1.91h0c-.47,1.83-.61,3.78-.43,5.69,.05,.33,.17,.63,.35,.88l.22,.18c.22,.18,.44,.35,.68,.51,.35,.27,.76,.39,1.16,.34,.17-.06,.33-.15,.47-.28,.85-.34,1.61-1,2.18-1.91,.33-1.25,.58-2.53,.75-3.83-.21-1.38-.45-2.76-.73-4.13-.65-2.86-1.79-5.47-3.34-7.63-.07-.08-.16-.13-.26-.14-.13,.02-.24,.15-.26,.32-.03,.16-.04,.33-.03,.5,.28,2.42,.21,4.89-.22,7.27-.19,.73-.38,1.47-.54,2.21v.02Zm-8.94,22.63h0c.74-.48,1.56-.72,2.39-.7,.78,.37,1.57,.7,2.37,.97,2.09-.06,3.98-1.67,4.9-4.17,1.14-2.97,3.01-5.33,5.29-6.7,1.53-.55,3.03-1.28,4.46-2.19,.27-.19,.43-.57,.41-.98-.24-1.63-.79-3.15-1.59-4.42-.23-.46-.53-.85-.88-1.14-.13-.08-.28-.06-.39,.06-.29,.28-.5,.69-.59,1.15,0,.3-.06,.6-.14,.87-.99,2.01-2.32,3.67-3.89,4.84-1.63,.92-3.51,.65-4.95-.73-.18-.2-.38-.37-.6-.5-.15-.05-.31-.02-.44,.09-1.18,1.08-2.69,1.24-3.98,.44l-.24-.14c-.16-.05-.32-.04-.47,.04-.72,.56-1.57,.68-2.37,.36-.53-.26-1.04-.59-1.52-.99-.16-.12-.37-.1-.51,.07-1.32,1.35-3.01,1.87-4.63,1.41-2.08-1.33-3.82-3.48-4.96-6.16-.14-.49-.35-.93-.63-1.29-.1-.12-.23-.17-.36-.12-.18,.11-.35,.28-.47,.49-.27,.62-.53,1.25-.79,1.88-.55,.76-.87,1.77-.89,2.83-.07,.38,0,.79,.19,1.09,.74,.73,1.57,1.29,2.45,1.66,1.53,.34,2.98,1.2,4.2,2.49,1.48,2.06,2.76,4.36,3.82,6.83,.29,.55,.63,1.06,1.01,1.49,.24,.17,.48,.35,.72,.53,.92,.76,2.02,.98,3.07,.63"/></g></g><text class="cls-11" transform="translate(39.29 312.28) scale(2.23 1)"><tspan x="0" y="0">404</tspan></text><text class="cls-5" transform="translate(32.76 336.73)"><tspan x="0" y="0">cl</tspan><tspan class="cls-4" x="8.26" y="0">iqu</tspan><tspan x="24.04" y="0">e </tspan><tspan class="cls-14" x="32.02" y="0">s</tspan><tspan x="36.4" y="0">ur </tspan><tspan class="cls-4" x="50.06" y="0">m</tspan><tspan class="cls-3" x="59.82" y="0">o</tspan><tspan class="cls-9" x="65.94" y="0">i</tspan><tspan class="cls-6" x="69.36" y="0">,</tspan><tspan x="72.38" y="0" xml:space="preserve"> je </tspan><tspan class="cls-7" x="86.24" y="0">t</tspan><tspan x="89.69" y="0">e ra</tspan><tspan class="cls-4" x="107.51" y="0">m</tspan><tspan x="117.26" y="0">e</tspan><tspan class="cls-4" x="122.44" y="0">n</tspan><tspan class="cls-10" x="129.03" y="0">era</tspan><tspan class="cls-12" x="144.06" y="0">i</tspan><tspan x="147.24" y="0">s </tspan><tspan class="cls-2" x="154.51" y="0">v</tspan><tspan x="159.98" y="0">e</tspan><tspan class="cls-12" x="165.16" y="0">r</tspan><tspan x="169.56" y="0">s </tspan><tspan class="cls-4" x="176.83" y="0">l</tspan><tspan x="179.9" y="0">e d</tspan><tspan class="cls-8" x="194.3" y="0">r</tspan><tspan class="cls-3" x="198.66" y="0">oi</tspan><tspan x="207.96" y="0">t c</tspan><tspan class="cls-4" x="219.54" y="0">h</tspan><tspan x="226" y="0">emin</tspan></text></g></svg>